<?xml version="1.0" encoding="UTF-8" standalone="no"?><!DOCTYPE svg PUBLIC "-//W3C//DTD SVG 1.1//EN" "http://www.w3.org/Graphics/SVG/1.1/DTD/svg11.dtd"><svg width="100%" height="100%" viewBox="0 0 134 134" version="1.1" xmlns="http://www.w3.org/2000/svg" xmlns:xlink="http://www.w3.org/1999/xlink" xml:space="preserve" xmlns:serif="http://www.serif.com/" style="fill-rule:evenodd;clip-rule:evenodd;stroke-miterlimit:10;"><rect id="Favicon" x="-0" y="0" width="133.333" height="133.333" style="fill:none;"/><clipPath id="_clip1"><rect x="-0" y="0" width="133.333" height="133.333"/></clipPath><g clip-path="url(#_clip1)"><g><g><g><g><path d="M66.667,66.667l-0,-66.667" style="fill:none;"/><path d="M58.854,11.495l7.813,-7.812l7.812,7.812" style="fill:none;stroke:#000;stroke-width:5.21px;"/><path d="M66.667,66.667l-0,-62.984" style="fill:none;stroke:#000;stroke-width:5.21px;stroke-linejoin:round;stroke-miterlimit:1.5;"/></g><g><path d="M66.667,66.667l-0,66.666" style="fill:none;"/><path d="M74.479,121.838l-7.812,7.812l-7.813,-7.812" style="fill:none;stroke:#000;stroke-width:5.21px;"/><path d="M66.667,66.667l-0,62.983" style="fill:none;stroke:#000;stroke-width:5.21px;stroke-linejoin:round;stroke-miterlimit:1.5;"/></g></g><g><g><path d="M66.667,66.667l-39.186,-53.935" style="fill:none;"/><path d="M27.917,26.624l1.729,-10.912l10.912,1.728" style="fill:none;stroke:#000;stroke-width:5.21px;"/><path d="M66.667,66.667c-0,-0 -28.804,-39.645 -37.021,-50.955" style="fill:none;stroke:#000;stroke-width:5.21px;stroke-linejoin:round;stroke-miterlimit:1.5;"/></g><g><path d="M66.667,66.667l39.185,53.934" style="fill:none;"/><path d="M105.416,106.709l-1.728,10.913l-10.913,-1.729" style="fill:none;stroke:#000;stroke-width:5.21px;"/><path d="M66.667,66.667c-0,-0 28.803,39.644 37.021,50.955" style="fill:none;stroke:#000;stroke-width:5.21px;stroke-linejoin:round;stroke-miterlimit:1.5;"/></g></g><g><g><path d="M66.667,66.667l-63.404,-20.601" style="fill:none;"/><path d="M11.781,57.048l-5.016,-9.844l9.845,-5.016" style="fill:none;stroke:#000;stroke-width:5.21px;"/><path d="M66.667,66.667c-0,-0 -46.605,-15.143 -59.902,-19.463" style="fill:none;stroke:#000;stroke-width:5.21px;stroke-linejoin:round;stroke-miterlimit:1.5;"/></g><g><path d="M66.667,66.667l63.403,20.601" style="fill:none;"/><path d="M121.552,76.285l5.016,9.845l-9.844,5.016" style="fill:none;stroke:#000;stroke-width:5.21px;"/><path d="M66.667,66.667c-0,-0 46.604,15.142 59.901,19.463" style="fill:none;stroke:#000;stroke-width:5.21px;stroke-linejoin:round;stroke-miterlimit:1.5;"/></g></g><g><g><path d="M66.667,66.667l-63.404,20.601" style="fill:none;"/><path d="M16.61,91.146l-9.845,-5.016l5.016,-9.845" style="fill:none;stroke:#000;stroke-width:5.21px;"/><path d="M66.667,66.667c-0,-0 -46.605,15.142 -59.902,19.463" style="fill:none;stroke:#000;stroke-width:5.21px;stroke-linejoin:round;stroke-miterlimit:1.5;"/></g><g><path d="M66.667,66.667l63.403,-20.601" style="fill:none;"/><path d="M116.724,42.188l9.844,5.016l-5.016,9.844" style="fill:none;stroke:#000;stroke-width:5.21px;"/><path d="M66.667,66.667c-0,-0 46.604,-15.143 59.901,-19.463" style="fill:none;stroke:#000;stroke-width:5.21px;stroke-linejoin:round;stroke-miterlimit:1.5;"/></g></g><g><g><path d="M66.667,66.667l-39.186,53.934" style="fill:none;"/><path d="M40.558,115.893l-10.912,1.729l-1.729,-10.913" style="fill:none;stroke:#000;stroke-width:5.21px;"/><path d="M66.667,66.667c-0,-0 -28.804,39.644 -37.021,50.955" style="fill:none;stroke:#000;stroke-width:5.21px;stroke-linejoin:round;stroke-miterlimit:1.5;"/></g><g><path d="M66.667,66.667l39.185,-53.935" style="fill:none;"/><path d="M92.775,17.44l10.913,-1.728l1.728,10.912" style="fill:none;stroke:#000;stroke-width:5.21px;"/><path d="M66.667,66.667c-0,-0 28.803,-39.645 37.021,-50.955" style="fill:none;stroke:#000;stroke-width:5.21px;stroke-linejoin:round;stroke-miterlimit:1.5;"/></g></g></g></g></g></svg>