<?xml version="1.0" encoding="UTF-8"?>
<svg id="Layer_1" data-name="Layer 1" xmlns="http://www.w3.org/2000/svg" viewBox="0 0 256 256">
  <defs>
    <style>
      .cls-1 {
        fill: #fff;
      }
    </style>
  </defs>
  <path class="cls-1" d="M57.44,128.89c.67-3.89,1.06-7.47,1.92-10.92,4.59-18.48,14.98-32.78,31.25-42.72,1.29-.79,1.27-1.42.58-2.59-3.4-5.75-6.73-11.54-10.07-17.32-.37-.64-.79-1.3-.97-2.01-.55-2.13.42-4.25,2.18-5.01,1.87-.8,4.11-.06,5.29,1.92,2.25,3.74,4.4,7.53,6.6,11.3,1.44,2.47,2.94,4.91,4.32,7.42.56,1.02,1.12,1.37,2.25.89,10.65-4.48,21.8-5.82,33.24-5.07,7.19.47,14.15,2.1,20.81,4.84,1.64.68,2.37.31,3.2-1.12,3.55-6.14,7.19-12.22,10.8-18.32.98-1.66,2.49-2.29,4.33-2.07,1.76.21,2.96,1.34,3.22,2.98.17,1.09-.11,2.46-.67,3.44-3.44,6.04-6.96,12.03-10.56,17.98-.83,1.37-.69,2.04.69,2.88,15.44,9.4,25.49,22.94,30.47,40.24,1.01,3.52,1.4,7.21,2.12,10.82.36,1.82-.14,2.51-2.17,2.5-13.78-.08-27.56-.04-41.35-.04-31.38,0-62.77,0-94.15,0h-3.34ZM103.94,103.17c-.01-4.33-3.44-7.78-7.76-7.79-4.33-.01-7.83,3.44-7.84,7.72,0,4.45,3.48,7.96,7.86,7.93,4.3-.03,7.74-3.53,7.73-7.85ZM167.92,103.15c-.01-4.33-3.45-7.77-7.77-7.77-4.33,0-7.82,3.45-7.82,7.74,0,4.43,3.51,7.95,7.89,7.91,4.31-.04,7.71-3.53,7.7-7.87Z"/>
  <rect class="cls-1" x="57.44" y="143.16" width="141.11" height="64.84"/>
</svg>