<?xml version="1.0" encoding="UTF-8"?>
<svg id="Layer_1" data-name="Layer 1" xmlns="http://www.w3.org/2000/svg" viewBox="0 0 256 256">
  <defs>
    <style>
      .cls-1 {
        fill: #fff;
      }
    </style>
  </defs>
  <path class="cls-1" d="M128,210c-11.48,0-22.21-2.15-32.19-6.46-9.98-4.3-18.66-10.15-26.03-17.53-7.38-7.38-13.19-16.09-17.42-26.14-4.24-10.04-6.36-20.81-6.36-32.29s2.12-22.17,6.36-32.08c4.24-9.91,10.04-18.55,17.42-25.93,7.38-7.38,16.06-13.15,26.03-17.32,9.98-4.17,20.7-6.25,32.19-6.25s22.21,2.08,32.19,6.25c9.98,4.17,18.65,9.94,26.04,17.32,7.38,7.38,13.19,16.02,17.42,25.93,4.24,9.91,6.35,20.6,6.35,32.08s-2.12,22.24-6.35,32.29c-4.24,10.05-10.05,18.76-17.42,26.14-7.38,7.38-16.06,13.22-26.04,17.53-9.98,4.3-20.7,6.46-32.19,6.46ZM128,198.11c4.78-4.92,8.78-10.56,11.99-16.91,3.21-6.35,5.84-13.91,7.89-22.65h-39.56c1.91,8.2,4.48,15.58,7.69,22.14,3.21,6.56,7.21,12.37,11.99,17.42ZM110.57,195.65c-3.42-5.19-6.36-10.8-8.81-16.81-2.46-6.01-4.51-12.78-6.15-20.3h-30.75c5.19,9.7,11.21,17.32,18.04,22.86,6.83,5.54,16.06,10.28,27.67,14.25ZM145.63,195.45c9.84-3.14,18.69-7.86,26.55-14.15,7.86-6.29,14.18-13.87,18.96-22.75h-30.55c-1.78,7.38-3.86,14.08-6.25,20.09-2.39,6.01-5.3,11.62-8.71,16.81ZM60.76,146.25h32.59c-.41-3.69-.65-7-.72-9.94-.07-2.94-.1-5.84-.1-8.71,0-3.42.07-6.46.21-9.12.14-2.66.41-5.64.82-8.92h-32.8c-.96,3.28-1.61,6.22-1.95,8.81-.34,2.6-.51,5.67-.51,9.22,0,3.55.17,6.73.51,9.53.34,2.8.99,5.84,1.95,9.12ZM106.06,146.25h44.08c.55-4.24.89-7.69,1.02-10.35.14-2.66.2-5.43.2-8.3s-.07-5.36-.2-7.89c-.14-2.53-.48-5.91-1.02-10.15h-44.08c-.55,4.24-.89,7.62-1.02,10.15-.14,2.53-.2,5.16-.2,7.89,0,2.87.07,5.64.2,8.3.14,2.66.48,6.12,1.02,10.35ZM162.44,146.25h32.8c.96-3.28,1.61-6.32,1.95-9.12.34-2.8.51-5.98.51-9.53s-.17-6.63-.51-9.22c-.34-2.6-.99-5.54-1.95-8.81h-32.6c.41,4.78.68,8.44.82,10.97.14,2.53.2,4.89.2,7.07,0,3.01-.1,5.84-.31,8.51-.2,2.66-.51,6.05-.92,10.15ZM160.39,97.25h30.75c-4.51-9.43-10.69-17.29-18.55-23.57-7.86-6.29-16.91-10.73-27.16-13.33,3.42,5.06,6.32,10.52,8.71,16.4,2.39,5.88,4.48,12.71,6.25,20.5ZM108.32,97.25h39.77c-1.5-7.24-4.03-14.25-7.59-21.01-3.55-6.77-7.72-12.74-12.5-17.94-4.37,3.69-8.06,8.54-11.07,14.56-3.01,6.01-5.88,14.14-8.61,24.39ZM64.86,97.25h30.96c1.5-7.38,3.42-13.97,5.74-19.78,2.32-5.81,5.26-11.45,8.81-16.91-10.25,2.6-19.2,6.97-26.86,13.12-7.65,6.15-13.87,14.01-18.66,23.57Z"/>
</svg>