<?xml version="1.0" encoding="UTF-8"?>
<svg id="Layer_1" data-name="Layer 1" xmlns="http://www.w3.org/2000/svg" viewBox="0 0 256 256">
  <defs>
    <style>
      .cls-1 {
        fill: #fff;
      }
    </style>
  </defs>
  <path class="cls-1" d="M188.45,171.05c2.43-.01,4.87,0,7.3,0v-.02c2.39,0,4.8.13,7.18-.03,4.32-.28,7.52-2.41,9.14-6.47,1.61-4.04.99-7.84-1.94-11.15-2.31-2.61-5.34-3.48-8.71-3.48-8.02,0-16.04-.09-24.06.06-2.11.04-3.15-.71-4.15-2.46-9.66-16.85-19.4-33.65-29.12-50.47-.71-1.23-.77-1.25-1.75-.2-4.65,4.96-6.62,11.01-6.97,17.64-.34,6.42,1.48,12.29,4.69,17.82,9.91,17.1,19.77,34.23,29.66,51.34,3.19,5.53,6.33,11.09,9.64,16.55,2.28,3.75,6.62,5.42,10.98,4.56,4.07-.81,7.3-4.1,8.17-8.27.65-3.15-.31-5.9-1.88-8.58-3.01-5.15-5.97-10.33-8.95-15.51-.66-1.16-.56-1.35.79-1.35Z"/>
  <path class="cls-1" d="M72.21,174.96c-1.62-.04-3.56.31-5.48.79-.71.18-1.2.55-1.57,1.19-2.34,4.09-4.73,8.15-7.06,12.24-1.06,1.86-1.58,3.89-1.37,6.02.47,4.86,3.64,8.49,8.19,9.52,4.59,1.03,9.06-.89,11.56-5.13,3.22-5.46,6.35-10.99,9.54-16.47.46-.78.42-1.38-.2-2.04-3.59-3.83-7.86-6.17-13.61-6.14Z"/>
  <path class="cls-1" d="M103.99,171.03c14.94,0,29.88-.01,44.82.02,1.13,0,1.72-.38,2.1-1.44.68-1.9.9-3.83.84-5.83-.2-6.54-5.21-14.05-14.22-13.92-10.15.14-20.3.03-30.45.03-1.73,0-1.81-.13-.96-1.6,12.97-22.44,25.95-44.88,38.92-67.33,2.02-3.49,4.13-6.92,5.98-10.5,1.96-3.79,1.72-7.65-.84-11.09-2.57-3.46-6.15-4.87-10.44-4.13-3.08.53-5.49,2.17-7.1,4.87-1.36,2.28-2.67,4.6-4.01,6.9-.91,1.56-.92,1.56-1.78.04-1.24-2.18-2.46-4.37-3.71-6.55-2.99-5.21-9.39-7.03-14.5-4.13-5.15,2.92-6.87,9.39-3.87,14.65,3.24,5.68,6.48,11.36,9.82,16.98.75,1.26.7,2.17-.01,3.4-10.96,18.91-21.88,37.84-32.76,56.79-.71,1.24-1.5,1.73-2.95,1.72-8.44-.07-16.88-.11-25.31,0-4.41.06-7.76,2.19-9.5,6.29-1.73,4.09-1.13,7.99,1.86,11.36,2.21,2.48,5.1,3.45,8.38,3.45,15.62,0,31.25,0,46.87,0,.95,0,1.9,0,2.85,0Z"/>
</svg>