<?xml version="1.0" encoding="UTF-8"?>
<svg id="Layer_1" data-name="Layer 1" xmlns="http://www.w3.org/2000/svg" viewBox="0 0 256 256">
  <defs>
    <style>
      .cls-1 {
        fill: #fff;
      }
    </style>
  </defs>
  <path class="cls-1" d="M191.9,95.39c-.81.71-1.62,1.41-2.4,2.12-3.16,2.86-6.21,5.84-8.69,9.33-3.61,5.08-5.83,10.72-6.38,16.94-.91,10.27,1.78,19.52,8.17,27.65,2.7,3.43,5.78,6.44,9.68,8.49,1.37.72,2.82,1.28,4.31,1.94-.31.92-.63,1.95-1,2.95-3.9,10.53-9.4,20.16-16.46,28.88-2.73,3.38-5.83,6.39-9.53,8.72-3.4,2.15-7.05,3.45-11.12,3.28-2.86-.12-5.64-.77-8.37-1.61-3-.93-5.96-1.99-8.96-2.92-3.18-.98-6.43-1.66-9.78-1.77-3.68-.13-7.24.59-10.7,1.77-2.65.9-5.23,1.97-7.86,2.92-2.52.9-5.09,1.59-7.76,1.84-3.59.34-6.96-.45-10.17-2.03-3.93-1.94-7.16-4.76-10.09-7.96-4.26-4.65-7.68-9.9-10.81-15.35-4.34-7.56-7.96-15.44-10.53-23.78-1.56-5.06-2.71-10.21-3.37-15.47-.72-5.71-.85-11.43-.4-17.17.52-6.55,1.84-12.92,4.41-19,2.93-6.93,7.12-12.96,12.96-17.76,4.65-3.81,9.95-6.17,15.91-7.07,4.37-.66,8.72-.44,13.06.26,4.62.74,9.08,2.1,13.57,3.33,2.84.78,5.69,1.52,8.63,1.87,1.95.23,3.85-.09,5.75-.48,3.64-.76,7.16-1.96,10.68-3.13,3.89-1.3,7.84-2.36,11.93-2.77,10.65-1.06,20.18,1.6,28.36,8.68,2.46,2.13,4.67,4.5,6.74,7.01.07.09.14.18.23.29Z"/>
  <path class="cls-1" d="M158.93,42c.45,1.31.6,2.49.62,3.69.08,3.96-.72,7.77-1.97,11.51-2.81,8.43-7.95,15.11-15.14,20.27-3.09,2.22-6.56,3.43-10.32,3.88-1.61.19-3.22.38-4.83.56-.17.02-.35,0-.47,0,0-.93-.05-1.85,0-2.76.32-5.03,1.3-9.93,3.25-14.6,2.09-5.02,4.91-9.55,9.05-13.15,3.67-3.19,7.87-5.47,12.42-7.09,2.41-.86,4.89-1.54,7.38-2.31Z"/>
</svg>