<?xml version="1.0" encoding="UTF-8"?>
<svg id="Layer_1" data-name="Layer 1" xmlns="http://www.w3.org/2000/svg" viewBox="0 0 256 256">
  <defs>
    <style>
      .cls-1 {
        fill: #fff;
      }
    </style>
  </defs>
  <path class="cls-1" d="M102.8,122.91c0-23.33,0-46.66,0-69.99,0-.37,0-.74,0-1.1.03-.74.21-.9.92-.77,1.16.22,2.32.46,3.48.71,8.18,1.77,16.25,3.97,24.27,6.33,5.5,1.62,10.98,3.3,16.41,5.16,4.78,1.64,9.47,3.5,13.96,5.84,3.6,1.88,7.02,4.05,10.07,6.74,3.94,3.48,6.99,7.62,9.01,12.5,1.71,4.12,2.62,8.42,3.16,12.83.52,4.27.6,8.56.43,12.84-.23,5.51-1.26,10.87-3.89,15.8-2.01,3.76-4.77,6.79-8.61,8.74-2.65,1.34-5.47,1.97-8.44,2.05-5.12.14-9.87-1.27-14.48-3.33-.55-.24-.81-.63-.81-1.22,0-.39-.01-.79-.01-1.18,0-15.6,0-31.2,0-46.79,0-1.98-.14-3.94-.69-5.86-.47-1.62-1.2-3.08-2.49-4.22-1.26-1.12-2.75-1.78-4.41-1.92-1.72-.15-2.96.75-3.85,2.15-.63.99-1,2.08-1.19,3.24-.22,1.33-.32,2.66-.32,4.01,0,39.25,0,78.49,0,117.74,0,.42.01.84-.02,1.26-.04.48-.21.6-.68.52-.23-.04-.46-.11-.68-.18-6.27-2-12.53-4-18.8-5.99-3.58-1.14-7.17-2.27-10.76-3.39-1.58-.49-1.58-.48-1.58-2.11,0-23.46,0-46.93,0-70.39Z"/>
  <path class="cls-1" d="M141.61,162.14c0-2.63,0-5.26,0-7.89,0-.24,0-.47,0-.71.02-.96.09-1.08.97-1.37,1.5-.49,2.99-1,4.51-1.43,6.8-1.92,13.7-3.29,20.73-4.04,2.3-.25,4.6-.42,6.92-.49,1.42-.04,2.84-.13,4.26-.11,10.39.2,20.61,1.52,30.52,4.73,3.25,1.05,6.51,2.1,9.6,3.58,2.17,1.04,4.21,2.27,5.97,3.93,1.02.96,1.87,2.07,2.39,3.39.81,2.09.67,4.12-.45,6.07-.81,1.42-1.97,2.53-3.21,3.55-2.66,2.2-5.7,3.75-8.83,5.16-2.5,1.13-5.11,1.95-7.68,2.88-5.76,2.09-11.53,4.15-17.3,6.23-5.1,1.83-10.2,3.66-15.3,5.49-6.48,2.33-12.97,4.66-19.45,6.99-4.18,1.5-8.37,3-12.55,4.51-.1.04-.2.07-.3.1-.58.15-.76.03-.81-.59-.02-.21-.01-.42-.01-.63,0-5.31,0-10.63,0-15.94,0-1.41.02-1.42,1.37-1.9,7.53-2.68,15.06-5.37,22.59-8.05,6.57-2.34,13.13-4.67,19.7-7,2.92-1.04,5.84-2.09,8.77-3.14.89-.32,1.75-.73,2.58-1.17.54-.29,1.03-.63,1.47-1.05,1.4-1.31,1.27-2.67-.35-3.67-.61-.38-1.26-.65-1.94-.86-.91-.28-1.83-.48-2.77-.6-5.35-.66-10.61-.2-15.75,1.4-3.09.96-6.11,2.12-9.16,3.2-4.07,1.43-8.13,2.88-12.2,4.31-4.31,1.52-8.63,3.04-12.95,4.56-1.25.44-1.36.38-1.36-.94,0-2.84,0-5.68,0-8.52Z"/>
  <path class="cls-1" d="M96.48,147.47c0,2.74,0,5.47,0,8.21,0,1.12-.06,1.21-1.13,1.59-5.25,1.88-10.5,3.75-15.75,5.63-5.67,2.03-11.34,4.06-17.01,6.1-1.14.41-2.24.92-3.23,1.63-.41.29-.79.62-1.09,1.02-.75,1.01-.59,2.16.42,2.9.62.46,1.32.76,2.04,1.01,1.93.68,3.95.89,5.98.97,3.43.13,6.83-.21,10.19-.94,2.32-.51,4.53-1.38,6.75-2.18,3.86-1.39,7.71-2.8,11.57-4.2,1.17-.42,1.26-.36,1.26.88,0,4.76,0,9.52,0,14.28,0,.16,0,.32,0,.47-.04.7-.17.87-.87,1-1.27.22-2.54.45-3.81.63-3.52.49-7.04.84-10.6,1.01-2.66.13-5.31.17-7.96.08-5.39-.18-10.75-.75-16.06-1.74-5.96-1.11-11.78-2.75-17.5-4.73-2.9-1.01-5.61-2.41-7.95-4.44-1.7-1.47-3.05-3.21-3.55-5.46-.55-2.46.26-4.56,1.87-6.4,1.07-1.22,2.39-2.13,3.76-2.98,3.27-2.05,6.75-3.66,10.29-5.15,3.25-1.36,6.61-2.45,9.92-3.64,6.14-2.2,12.29-4.38,18.43-6.56,5.03-1.79,10.06-3.57,15.09-5.36,2.55-.91,5.11-1.81,7.66-2.72.1-.04.2-.07.3-.11.77-.25.97-.14.98.67.02,1.63,0,3.26.01,4.89,0,1.21,0,2.42,0,3.63Z"/>
</svg>