<?xml version="1.0" encoding="UTF-8"?>
<svg id="Layer_1" data-name="Layer 1" xmlns="http://www.w3.org/2000/svg" viewBox="0 0 256 256">
  <defs>
    <style>
      .cls-1 {
        fill: #fff;
      }
    </style>
  </defs>
  <path class="cls-1" d="M140.89,54.65c9.91,0,19.82,0,29.74,0,.21.21.4.56.64.6,14.3,2.39,23.85,10.6,29.22,23.87,1.03,2.56,1.69,5.27,2.52,7.91v82.6c-1.12.79-.91,2.13-1.21,3.21-3.7,13.32-12.03,22.23-25.11,26.77-2,.69-4.22.55-6.06,1.74h-29.74c-.04-.77-.12-1.53-.12-2.3,0-47.25,0-94.51,0-141.76,0-.88.08-1.75.12-2.63ZM169.74,120.54c-8.24.09-14.89,6.75-14.88,14.89.02,8.22,6.97,15.07,15.19,14.97,8.14-.1,14.88-6.87,14.89-14.96,0-8.27-6.85-14.99-15.2-14.9Z"/>
  <path class="cls-1" d="M53,169.63v-83.26c1.12-.79.91-2.13,1.21-3.21,3.73-13.46,12.2-22.38,25.42-26.88,1.69-.57,3.63-.35,5.09-1.63h40.31v146.69h-40.97c-.64-1.11-1.87-.95-2.84-1.22-13.48-3.8-22.2-12.49-26.62-25.69-.54-1.6-.26-3.47-1.59-4.81ZM113.03,128.3c0-19.49-.06-38.98.07-58.47.02-2.67-.75-3.32-3.31-3.25-6.05.18-12.13-.24-18.16.12-12.89.78-21.69,6.21-25.08,18.4-1.09,3.93-1.56,7.97-1.56,12.06,0,19.6.02,39.2-.01,58.8,0,3.53.17,7.03.6,10.53,1.52,12.31,9.31,20.37,21.58,22.3,7.56,1.19,15.17.2,22.74.65,2.77.17,3.2-.88,3.19-3.34-.09-19.27-.05-38.54-.05-57.81Z"/>
  <path class="cls-1" d="M103.95,98.89c0,7.64-6.28,13.84-13.87,13.72-7.55-.12-13.6-6.2-13.62-13.69-.02-7.68,6.09-13.85,13.74-13.87,7.59-.02,13.76,6.19,13.75,13.84Z"/>
</svg>