<?xml version="1.0" encoding="UTF-8"?>
<svg id="Layer_1" data-name="Layer 1" xmlns="http://www.w3.org/2000/svg" viewBox="0 0 256 256">
  <defs>
    <style>
      .cls-1 {
        fill: #fff;
      }
    </style>
  </defs>
  <path class="cls-1" d="M137.71,103.55c1.83-8.83,5.73-16.22,11.86-22.39,5.04-5.07,10.81-9.02,17.84-10.83,6.27-1.62,12.5-1.53,18.66.65,6.28,2.22,10.04,6.77,11.56,13.06,2.83,11.65,1.95,23-3.06,34.02-5.6,12.31-13.11,23.4-21.29,34.07-7.96,10.37-16.03,20.67-25.95,29.3-6.35,5.52-13.18,10.35-21.47,12.57-8.65,2.32-15.67-.51-20.53-8.06-4.56-7.08-6.92-15.05-9.21-23.03-4.39-15.32-8.69-30.66-13.07-45.98-.95-3.32-2.33-6.46-4.76-9.01-2.66-2.79-4.67-3.1-8.04-1.26-2.59,1.42-5.06,3.03-7.39,4.84-.88.68-1.43.77-2.17-.23-1.75-2.38-3.59-4.69-5.45-6.97-.6-.74-.69-1.17.1-1.88,9.75-8.71,19.37-17.56,30.14-25.02,3.56-2.47,7.17-5.11,11.55-5.7,7.17-.96,12.6,2.18,16.53,8.07,2.93,4.38,3.73,9.47,4.54,14.52,2.45,15.27,5.81,30.36,9.23,45.44.71,3.13,2.1,6.04,4.3,8.44,2.19,2.38,3.78,2.39,6.19.27,2.32-2.04,4.26-4.43,6.05-6.92,4.26-5.91,8.44-11.89,11.54-18.51,2.15-4.6,3.17-9.46,2.15-14.57-.87-4.36-3.61-6.65-8.02-6.84-3.97-.17-7.75.77-11.84,1.97Z"/>
</svg>