<?xml version="1.0" encoding="UTF-8"?>
<svg id="Layer_1" data-name="Layer 1" xmlns="http://www.w3.org/2000/svg" viewBox="0 0 256 256">
  <defs>
    <style>
      .cls-1 {
        fill: #fff;
      }
    </style>
  </defs>
  <path class="cls-1" d="M191.95,42.68c1.33.97,1.77,2.3,1.77,3.91-.02,23.76-.01,47.52-.02,71.28,0,2.88-1.02,3.89-3.94,3.89-19.32,0-38.64,0-57.96,0-3.02,0-3.92-.93-3.93-4.02,0-19.49,0-38.97,0-58.46,0-2.68.7-3.5,3.36-4.08,18.92-4.08,37.84-8.16,56.76-12.24.32-.07.63-.19.95-.28,1,0,2,0,3,0Z"/>
  <path class="cls-1" d="M193.7,173.68c0,11.49,0,22.98,0,34.46,0,.5,0,1,0,1.5-.08,2.91-1.59,4.13-4.46,3.53-5.43-1.14-10.84-2.32-16.26-3.49-13.93-3-27.86-5.99-41.79-8.99-2.63-.56-3.31-1.4-3.31-4.12,0-19.48,0-38.96,0-58.44,0-3.06.91-3.98,3.96-3.98,19.26,0,38.52,0,57.77,0,3.12,0,4.09.96,4.09,4.07,0,11.82,0,23.64,0,35.46Z"/>
  <path class="cls-1" d="M115.67,165.92c0,8.77,0,17.54,0,26.31,0,.61.02,1.22-.03,1.83-.23,3.03-1.69,4.15-4.67,3.52-4.18-.88-8.35-1.79-12.52-2.69-10.79-2.32-21.58-4.63-32.37-6.95-3.06-.66-3.79-1.53-3.79-4.66,0-14.99,0-29.98,0-44.97,0-3.25.92-4.18,4.15-4.18,14.93,0,29.87,0,44.8,0,3.45,0,4.42.94,4.43,4.47.02,9.1,0,18.21,0,27.31Z"/>
  <path class="cls-1" d="M115.67,90.05c0,8.88,0,17.76,0,26.64,0,.94-.06,1.9-.26,2.81-.29,1.32-1.19,2.09-2.57,2.22-.39.04-.78.04-1.16.04-15.15,0-30.3,0-45.46,0-2.9,0-3.92-1.01-3.92-3.9,0-15.21,0-30.41,0-45.62,0-2.62.75-3.6,3.35-4.16,15.06-3.26,30.13-6.5,45.21-9.72,3.32-.71,4.8.61,4.81,4.23.03,9.16,0,18.32.01,27.47Z"/>
</svg>