<?xml version="1.0" encoding="UTF-8"?>
<svg id="Layer_1" data-name="Layer 1" xmlns="http://www.w3.org/2000/svg" viewBox="0 0 256 256">
  <defs>
    <style>
      .cls-1 {
        fill: #fff;
      }
    </style>
  </defs>
  <path class="cls-1" d="M127.84,206.09c-11.69.03-22.32-2.49-32.46-7.18-5.58-2.58-10.76-5.8-15.64-9.54-.85-.65-1.62-1.38-2.37-2.14-1.95-1.98-2.7-4.38-2.54-7.11.16-2.77.95-5.39,1.98-7.94,1.7-4.24,3.98-8.17,6.48-11.98,4.31-6.57,9.22-12.66,14.42-18.53,7.66-8.65,15.88-16.73,24.65-24.26,1.57-1.35,3.18-2.63,4.9-3.79.83-.56,1.51-.56,2.33.03,2.06,1.48,3.98,3.14,5.85,4.84,8.71,7.93,17.05,16.23,24.91,25.01,5.96,6.66,11.3,13.78,15.77,21.53,1.94,3.36,3.64,6.83,4.76,10.56.6,1.99.99,4.01.9,6.1-.08,1.82-.67,3.42-1.91,4.78-1.44,1.59-3.08,2.94-4.83,4.17-7.31,5.17-15.16,9.3-23.71,12.03-4.09,1.31-8.31,2.09-12.57,2.64-3.78.49-7.57.73-10.9.76Z"/>
  <path class="cls-1" d="M205.99,128.36c.02,3.82-.09,7.64-.56,11.43-.34,2.7-.99,5.34-1.71,7.95-1.18,4.28-2.56,8.48-4.38,12.53-1.69,3.75-3.78,7.28-5.94,10.78-.74,1.19-1.5,2.37-2.37,3.47-.07.09-.14.19-.22.27-.1.09-.16.29-.32.21-.13-.07-.05-.24-.03-.36.12-.94.4-1.85.49-2.8.19-1.93.07-3.84-.19-5.75-.76-5.63-2.49-10.98-4.76-16.17-3.35-7.68-7.36-15.02-11.64-22.22-5.7-9.58-11.86-18.84-18.69-27.66-1.85-2.38-3.74-4.73-5.62-7.09-.19-.23-.22-.38.02-.61,3.88-3.53,7.68-7.15,11.76-10.46,3.23-2.62,6.57-5.1,10.25-7.07,2.34-1.25,4.79-2.27,7.37-2.92.36-.09.74-.13,1.11-.22.76-.18,1.4.05,2,.5,1.5,1.12,2.79,2.45,4.03,3.83,7.62,8.47,12.87,18.26,16.26,29.09,1.04,3.32,1.93,6.69,2.41,10.15.47,3.39.66,6.8.73,10.22.02.96,0,1.92,0,2.88Z"/>
  <path class="cls-1" d="M50.02,128.02c-.06-2.84.27-5.65.67-8.45.44-3.06.85-6.12,1.51-9.15,1.21-5.5,3.1-10.78,5.49-15.87,2.72-5.8,6.01-11.25,10.1-16.19,1.65-1.99,3.39-3.9,5.35-5.6,1.1-.95,2.34-1.21,3.75-.85,3.09.79,6,2.02,8.75,3.64,4.08,2.41,7.76,5.35,11.35,8.42,3.2,2.73,6.28,5.6,9.42,8.41.31.27.27.44.03.72-3.15,3.8-6.24,7.65-9.16,11.64-9.15,12.51-17.41,25.57-24.24,39.51-2.22,4.53-4.2,9.16-5.62,14.01-.95,3.24-1.67,6.52-1.97,9.88-.14,1.61-.17,3.22.13,4.82.12.62.36,1.19.54,1.79.04.15.19.36,0,.45-.17.08-.28-.15-.38-.27-.93-1.14-1.72-2.38-2.52-3.61-2.15-3.29-4.1-6.69-5.75-10.26-2.48-5.37-4.24-10.97-5.44-16.75-.95-4.54-1.62-9.13-2-13.76-.07-.84,0-1.69,0-2.53Z"/>
  <path class="cls-1" d="M168.25,60.88c-.75-.03-1.5-.05-2.24-.11-3.47-.28-6.9.07-10.3.76-6.39,1.3-12.45,3.56-18.36,6.24-2.86,1.3-5.66,2.73-8.54,3.98-.64.28-1.17.27-1.79-.05-2.54-1.28-5.08-2.56-7.65-3.77-2.6-1.22-5.26-2.28-7.96-3.27-2.55-.94-5.13-1.8-7.75-2.52-2.22-.61-4.46-1.12-6.78-1.3-2.11-.17-4.22-.2-6.34-.09-.46.02-.91.01-1.36-.04-.13-.01-.28-.04-.32-.18-.05-.15.09-.24.18-.31.43-.34.91-.6,1.4-.84,4.9-2.48,9.86-4.78,15.14-6.34,4.15-1.22,8.35-2.25,12.68-2.66,4.16-.39,8.32-.54,12.49-.44,3.05.07,6.1.24,9.13.62,3.08.38,6.07,1.13,9.05,1.98,4.85,1.39,9.58,3.11,14.13,5.31,1.75.84,3.42,1.81,5.06,2.84.05.03.1.07.16.11,0,.03,0,.06-.01.09Z"/>
</svg>