<?xml version="1.0" encoding="UTF-8"?>
<svg id="Layer_1" data-name="Layer 1" xmlns="http://www.w3.org/2000/svg" viewBox="0 0 256 256">
  <defs>
    <style>
      .cls-1 {
        fill: #fff;
      }
    </style>
  </defs>
  <path class="cls-1" d="M207.84,112.02v31.5c-.53.43-.53.43-.59,1.48-.29,6.02-.89,12.01-1.91,17.95-1.64,9.53-7.19,15.88-15.73,17.86-3.19.74-6.46,1.05-9.71,1.34-10.97.97-21.98,1.33-32.99,1.52-23.33.4-46.65.31-69.92-1.52-3.78-.3-7.59-.6-11.23-1.64-8.84-2.53-13.56-8.68-15.09-17.57-1.02-5.95-1.62-11.93-1.95-17.95-.03-.49.4-1.29-.56-1.48v-30.87c.53-.46.52-.46.59-1.65.38-6.96.85-13.91,2.57-20.68,2.03-7.98,7.12-13.14,15.16-15.09,5.11-1.24,10.38-1.49,15.61-1.83,9.65-.63,19.31-.92,28.97-1.08,24.06-.4,48.12-.31,72.11,1.99,3.61.35,7.24.82,10.57,2.43,6.84,3.31,10.34,8.99,11.61,16.3,1.01,5.79,1.63,11.62,1.94,17.48.03.5-.37,1.28.55,1.51ZM112.15,151.91c13.94-8.03,27.62-15.91,41.51-23.91-13.89-8-27.64-15.92-41.51-23.91v47.81Z"/>
</svg>