<?xml version="1.0" encoding="UTF-8" standalone="no"?><!DOCTYPE svg PUBLIC "-//W3C//DTD SVG 1.1//EN" "http://www.w3.org/Graphics/SVG/1.1/DTD/svg11.dtd"><svg width="100%" height="100%" viewBox="0 0 4267 4267" version="1.1" xmlns="http://www.w3.org/2000/svg" xmlns:xlink="http://www.w3.org/1999/xlink" xml:space="preserve" xmlns:serif="http://www.serif.com/" style="fill-rule:evenodd;clip-rule:evenodd;stroke-miterlimit:10;"><rect id="Logo-1024" x="0" y="0" width="4266.67" height="4266.67" style="fill:none;"/><clipPath id="_clip1"><rect x="0" y="0" width="4266.67" height="4266.67"/></clipPath><g clip-path="url(#_clip1)"><g><g><g><g><path d="M2133.33,2133.33l0,-2133.33" style="fill:none;"/><path d="M1852.08,413.833l281.25,-281.25l281.25,281.25" style="fill:none;stroke:#000;stroke-width:187.5px;"/><path d="M2133.33,2133.33l0,-2000.75" style="fill:none;stroke:#000;stroke-width:187.5px;stroke-linejoin:round;stroke-miterlimit:1.5;"/></g><g><path d="M2133.33,2133.33l0,2133.33" style="fill:none;"/><path d="M2414.58,3852.83l-281.25,281.25l-281.25,-281.25" style="fill:none;stroke:#000;stroke-width:187.5px;"/><path d="M2133.33,2133.33l0,2000.75" style="fill:none;stroke:#000;stroke-width:187.5px;stroke-linejoin:round;stroke-miterlimit:1.5;"/></g></g><g><g><path d="M2133.33,2133.33l-1253.94,-1725.9" style="fill:none;"/><path d="M895.1,907.543l62.222,-392.851l392.85,62.221" style="fill:none;stroke:#000;stroke-width:187.5px;"/><path d="M2133.33,2133.33c0,0 -902.1,-1241.63 -1176.01,-1618.64" style="fill:none;stroke:#000;stroke-width:187.5px;stroke-linejoin:round;stroke-miterlimit:1.5;"/></g><g><path d="M2133.33,2133.33l1253.94,1725.9" style="fill:none;"/><path d="M3371.57,3359.12l-62.222,392.851l-392.85,-62.222" style="fill:none;stroke:#000;stroke-width:187.5px;"/><path d="M2133.33,2133.33c0,0 902.101,1241.63 1176.01,1618.64" style="fill:none;stroke:#000;stroke-width:187.5px;stroke-linejoin:round;stroke-miterlimit:1.5;"/></g></g><g><g><path d="M2133.33,2133.33l-2028.92,-659.236" style="fill:none;"/><path d="M411.08,1869.46l-180.574,-354.396l354.396,-180.573" style="fill:none;stroke:#000;stroke-width:187.5px;"/><path d="M2133.33,2133.33c0,0 -1459.63,-474.262 -1902.83,-618.266" style="fill:none;stroke:#000;stroke-width:187.5px;stroke-linejoin:round;stroke-miterlimit:1.5;"/></g><g><path d="M2133.33,2133.33l2028.92,659.237" style="fill:none;"/><path d="M3855.59,2397.2l180.573,354.395l-354.395,180.574" style="fill:none;stroke:#000;stroke-width:187.5px;"/><path d="M2133.33,2133.33c0,0 1459.63,474.263 1902.83,618.266" style="fill:none;stroke:#000;stroke-width:187.5px;stroke-linejoin:round;stroke-miterlimit:1.5;"/></g></g><g><g><path d="M2133.33,2133.33l-2028.92,659.237" style="fill:none;"/><path d="M584.902,2932.17l-354.396,-180.574l180.574,-354.395" style="fill:none;stroke:#000;stroke-width:187.5px;"/><path d="M2133.33,2133.33c0,0 -1459.63,474.263 -1902.83,618.266" style="fill:none;stroke:#000;stroke-width:187.5px;stroke-linejoin:round;stroke-miterlimit:1.5;"/></g><g><path d="M2133.33,2133.33l2028.92,-659.236" style="fill:none;"/><path d="M3681.76,1334.49l354.395,180.573l-180.573,354.396" style="fill:none;stroke:#000;stroke-width:187.5px;"/><path d="M2133.33,2133.33c0,0 1459.63,-474.262 1902.83,-618.266" style="fill:none;stroke:#000;stroke-width:187.5px;stroke-linejoin:round;stroke-miterlimit:1.5;"/></g></g><g><g><path d="M2133.33,2133.33l-1253.94,1725.9" style="fill:none;"/><path d="M1350.17,3689.75l-392.85,62.222l-62.222,-392.851" style="fill:none;stroke:#000;stroke-width:187.5px;"/><path d="M2133.33,2133.33c0,0 -902.1,1241.63 -1176.01,1618.64" style="fill:none;stroke:#000;stroke-width:187.5px;stroke-linejoin:round;stroke-miterlimit:1.5;"/></g><g><path d="M2133.33,2133.33l1253.94,-1725.9" style="fill:none;"/><path d="M2916.49,576.913l392.85,-62.221l62.222,392.851" style="fill:none;stroke:#000;stroke-width:187.5px;"/><path d="M2133.33,2133.33c0,0 902.101,-1241.63 1176.01,-1618.64" style="fill:none;stroke:#000;stroke-width:187.5px;stroke-linejoin:round;stroke-miterlimit:1.5;"/></g></g></g></g></g></svg>